<?xml version="1.0" ?><svg id="Layer_1" style="enable-background:new 0 0 512 512;" version="1.1" viewBox="0 0 512 512" xml:space="preserve" xmlns="http://www.w3.org/2000/svg" xmlns:xlink="http://www.w3.org/1999/xlink"><style type="text/css">
	.st0{fill:#E0A41E;}
	.st1{fill:#FFFFFF;}
	.st2{fill:#F2B233;}
	.st3{fill:#FCE379;}
	.st4{fill:#C18102;}
</style><g><g><path class="st0" d="M431.8,506H80.2c-4.9,0-9-4-9-9V15c0-4.9,4-9,9-9h351.5c4.9,0,9,4,9,9V497    C440.7,502,436.7,506,431.8,506z" id="XMLID_14_"/><rect class="st1" height="471.2" id="XMLID_13_" width="340.7" x="85.7" y="20.4"/><g><g id="XMLID_170_"><g id="XMLID_185_"><rect class="st0" height="11.2" id="XMLID_186_" width="244.2" x="133.9" y="86.2"/></g><g id="XMLID_183_"><rect class="st0" height="11.2" id="XMLID_184_" width="244.2" x="133.9" y="109.4"/></g><g id="XMLID_181_"><rect class="st0" height="11.2" id="XMLID_182_" width="244.2" x="133.9" y="132.5"/></g><g id="XMLID_179_"><rect class="st0" height="11.2" id="XMLID_180_" width="244.2" x="133.9" y="155.6"/></g><g id="XMLID_177_"><rect class="st0" height="11.2" id="XMLID_178_" width="244.2" x="133.9" y="178.8"/></g><g id="XMLID_175_"><rect class="st0" height="11.2" id="XMLID_176_" width="244.2" x="133.9" y="201.9"/></g><g id="XMLID_173_"><rect class="st0" height="11.2" id="XMLID_174_" width="244.2" x="133.9" y="225.1"/></g><g id="XMLID_171_"><rect class="st0" height="11.2" id="XMLID_172_" width="180.4" x="133.9" y="248.2"/></g></g></g><polygon class="st2" id="XMLID_4_" points="274,156 274,6 397.4,6 397.4,156 335.7,119.8   "/><polygon class="st0" id="XMLID_3_" points="356,321.4 85.7,321.4 85.7,447.6 356,447.6 313.3,384.5   "/><polygon class="st3" id="XMLID_2_" points="332.4,333.8 85.7,333.8 85.7,435.3 332.4,435.3 298,384.6   "/><polygon class="st4" id="XMLID_1_" points="258.1,20.4 274,20.4 274,6   "/></g><g id="XMLID_694_"><g id="XMLID_93_"><path class="st1" d="M165.1,395.5l0.1,0.3c0.1,6.4-2,11.5-6.2,15.4c-4.3,3.9-10,5.9-17.2,5.9     c-7.3,0-13.3-2.5-17.9-7.4c-4.6-5-6.9-11.3-6.9-19v-12c0-7.7,2.3-14,6.8-19c4.5-5,10.4-7.5,17.7-7.5c7.4,0,13.3,1.9,17.6,5.7     c4.3,3.8,6.3,9,6.2,15.6l-0.1,0.3h-10.2c0-4.2-1.1-7.5-3.4-9.7c-2.3-2.2-5.6-3.4-10.1-3.4c-4.3,0-7.7,1.7-10.2,5.1     c-2.5,3.4-3.8,7.7-3.8,12.9v12.1c0,5.2,1.3,9.6,3.8,13c2.5,3.4,6,5.1,10.4,5.1c4.3,0,7.6-1.1,9.8-3.4c2.2-2.3,3.4-5.5,3.4-9.8     H165.1z" id="XMLID_98_"/><path class="st1" d="M211.2,399.9c0-2.6-0.9-4.8-2.8-6.5c-1.9-1.7-5.2-3.2-9.9-4.5c-6.8-1.9-12-4.3-15.7-7.4     c-3.7-3.1-5.5-7-5.5-12c0-5.1,2-9.3,6.1-12.6c4-3.3,9.3-4.9,15.6-4.9c6.8,0,12.3,1.8,16.4,5.5c4.1,3.7,6.1,8.2,5.9,13.6l-0.1,0.3     H211c0-3.3-1.1-6-3.3-7.9c-2.2-2-5.2-3-8.8-3c-3.6,0-6.3,0.8-8.2,2.5c-1.9,1.7-2.9,3.8-2.9,6.5c0,2.4,1.1,4.4,3.2,6     c2.1,1.6,5.6,3.1,10.5,4.5c6.6,1.9,11.7,4.4,15.1,7.6c3.5,3.2,5.2,7.3,5.2,12.3c0,5.2-2.1,9.4-6.2,12.5     c-4.1,3.1-9.5,4.7-16.2,4.7c-6.4,0-12-1.7-16.8-5.1c-4.8-3.4-7.1-8.2-6.9-14.4l0.1-0.3h10.2c0,3.8,1.3,6.6,3.9,8.6     c2.6,1.9,5.8,2.9,9.6,2.9c3.7,0,6.6-0.8,8.7-2.4C210.2,404.7,211.2,402.6,211.2,399.9z" id="XMLID_96_"/><path class="st1" d="M268.5,399.9c0-2.6-0.9-4.8-2.8-6.5c-1.9-1.7-5.2-3.2-9.9-4.5c-6.8-1.9-12-4.3-15.7-7.4     c-3.7-3.1-5.5-7-5.5-12c0-5.1,2-9.3,6.1-12.6c4-3.3,9.3-4.9,15.6-4.9c6.8,0,12.3,1.8,16.4,5.5c4.1,3.7,6.1,8.2,5.9,13.6l-0.1,0.3     h-10.2c0-3.3-1.1-6-3.3-7.9c-2.2-2-5.2-3-8.8-3c-3.6,0-6.3,0.8-8.2,2.5c-1.9,1.7-2.9,3.8-2.9,6.5c0,2.4,1.1,4.4,3.2,6     c2.1,1.6,5.6,3.1,10.5,4.5c6.6,1.9,11.7,4.4,15.1,7.6c3.5,3.2,5.2,7.3,5.2,12.3c0,5.2-2.1,9.4-6.2,12.5     c-4.1,3.1-9.5,4.7-16.2,4.7c-6.4,0-12-1.7-16.8-5.1c-4.8-3.4-7.1-8.2-6.9-14.4l0.1-0.3h10.2c0,3.8,1.3,6.6,3.9,8.6     c2.6,1.9,5.8,2.9,9.6,2.9c3.7,0,6.6-0.8,8.7-2.4C267.5,404.7,268.5,402.6,268.5,399.9z" id="XMLID_94_"/></g></g></g></svg>