<?xml version="1.0" ?><svg id="Layer_1" style="enable-background:new 0 0 512 512;" version="1.1" viewBox="0 0 512 512" xml:space="preserve" xmlns="http://www.w3.org/2000/svg" xmlns:xlink="http://www.w3.org/1999/xlink"><style type="text/css">
	.st0{fill:#141D23;}
	.st1{fill:#FFFFFF;}
	.st2{fill:#24323D;}
	.st3{fill:#475563;}
	.st4{fill:#070C0F;}
</style><g><g><path class="st0" d="M431.8,506H80.2c-4.9,0-9-4-9-9V15c0-4.9,4-9,9-9h351.5c4.9,0,9,4,9,9V497    C440.7,502,436.7,506,431.8,506z" id="XMLID_14_"/><rect class="st1" height="471.2" id="XMLID_13_" width="340.7" x="85.7" y="20.4"/><g><g id="XMLID_174_"><g id="XMLID_189_"><rect class="st0" height="11.2" id="XMLID_190_" width="244.2" x="133.9" y="86.2"/></g><g id="XMLID_187_"><rect class="st0" height="11.2" id="XMLID_188_" width="244.2" x="133.9" y="109.4"/></g><g id="XMLID_185_"><rect class="st0" height="11.2" id="XMLID_186_" width="244.2" x="133.9" y="132.5"/></g><g id="XMLID_183_"><rect class="st0" height="11.2" id="XMLID_184_" width="244.2" x="133.9" y="155.6"/></g><g id="XMLID_181_"><rect class="st0" height="11.2" id="XMLID_182_" width="244.2" x="133.9" y="178.8"/></g><g id="XMLID_179_"><rect class="st0" height="11.2" id="XMLID_180_" width="244.2" x="133.9" y="201.9"/></g><g id="XMLID_177_"><rect class="st0" height="11.2" id="XMLID_178_" width="244.2" x="133.9" y="225.1"/></g><g id="XMLID_175_"><rect class="st0" height="11.2" id="XMLID_176_" width="180.4" x="133.9" y="248.2"/></g></g></g><polygon class="st2" id="XMLID_4_" points="274,156 274,6 397.4,6 397.4,156 335.7,119.8   "/><polygon class="st0" id="XMLID_3_" points="356,321.4 85.7,321.4 85.7,447.6 356,447.6 313.3,384.5   "/><polygon class="st3" id="XMLID_2_" points="332.4,333.8 85.7,333.8 85.7,435.3 332.4,435.3 298,384.6   "/><polygon class="st4" id="XMLID_1_" points="258.1,20.4 274,20.4 274,6   "/></g><g id="XMLID_490_"><g id="XMLID_109_"><path class="st1" d="M128.7,417.1v-65h21.3c7.2,0,12.8,1.5,16.8,4.4c4,3,6.1,7.4,6.1,13.3c0,2.9-0.8,5.4-2.4,7.7     c-1.6,2.3-3.9,4-6.8,5.2c4.2,0.7,7.4,2.5,9.6,5.4c2.2,2.9,3.4,6.3,3.4,10.3c0,6.1-2,10.7-6,13.9c-4,3.2-9.5,4.8-16.5,4.8H128.7z      M139.5,379.4h11.6c3.4,0,6-0.8,8-2.4c1.9-1.6,2.9-3.8,2.9-6.8c0-3.2-1-5.6-3.1-7.2s-5-2.3-9-2.3h-10.4V379.4z M139.5,387.5v20.9     h14.6c3.8,0,6.6-0.9,8.7-2.6c2-1.7,3-4.2,3-7.4c0-3.3-1-5.9-3-7.8c-2-1.9-4.8-3-8.4-3.1h-0.6H139.5z" id="XMLID_114_"/><path class="st1" d="M201.4,417.1h-10.8v-65h10.8V417.1z" id="XMLID_112_"/><path class="st1" d="M269.4,417.1h-10.8l-28.8-46.8l-0.3,0.1v46.7h-10.8v-65h10.8l28.8,46.8l0.3-0.1v-46.7h10.8     V417.1z" id="XMLID_110_"/></g></g></g></svg>