<?xml version="1.0" ?><svg id="Layer_1" style="enable-background:new 0 0 512 512;" version="1.1" viewBox="0 0 512 512" xml:space="preserve" xmlns="http://www.w3.org/2000/svg" xmlns:xlink="http://www.w3.org/1999/xlink"><style type="text/css">
	.st0{fill:#096047;}
	.st1{fill:#C41E4A;}
	.st2{fill:#FFFFFF;}
	.st3{fill:#E03258;}
	.st4{fill:#F45671;}
	.st5{fill:#A50C3B;}
</style><g><polygon class="st0" id="XMLID_15_" points="296.6,338 296.6,346.4 305,346.4  "/><g><path class="st1" d="M431.8,506H80.2c-4.9,0-9-4-9-9V15c0-4.9,4-9,9-9h351.5c4.9,0,9,4,9,9V497    C440.7,502,436.7,506,431.8,506z" id="XMLID_14_"/><rect class="st2" height="471.2" id="XMLID_13_" width="340.7" x="85.7" y="20.4"/><g><g id="XMLID_183_"><g id="XMLID_199_"><rect class="st1" height="11.2" id="XMLID_200_" width="244.2" x="133.9" y="86.2"/></g><g id="XMLID_197_"><rect class="st1" height="11.2" id="XMLID_198_" width="244.2" x="133.9" y="109.4"/></g><g id="XMLID_195_"><rect class="st1" height="11.2" id="XMLID_196_" width="244.2" x="133.9" y="132.5"/></g><g id="XMLID_193_"><rect class="st1" height="11.2" id="XMLID_194_" width="244.2" x="133.9" y="155.6"/></g><g id="XMLID_190_"><rect class="st1" height="11.2" id="XMLID_191_" width="244.2" x="133.9" y="178.8"/></g><g id="XMLID_188_"><rect class="st1" height="11.2" id="XMLID_189_" width="244.2" x="133.9" y="201.9"/></g><g id="XMLID_186_"><rect class="st1" height="11.2" id="XMLID_187_" width="244.2" x="133.9" y="225.1"/></g><g id="XMLID_184_"><rect class="st1" height="11.2" id="XMLID_185_" width="180.4" x="133.9" y="248.2"/></g></g></g><polygon class="st3" id="XMLID_4_" points="274,156 274,6 397.4,6 397.4,156 335.7,119.8   "/><polygon class="st1" id="XMLID_3_" points="356,321.4 85.7,321.4 85.7,447.6 356,447.6 313.3,384.5   "/><polygon class="st4" id="XMLID_2_" points="332.4,333.8 85.7,333.8 85.7,435.3 332.4,435.3 298,384.6   "/><polygon class="st5" id="XMLID_1_" points="258.1,20.4 274,20.4 274,6   "/></g><g id="XMLID_40_"><g id="XMLID_113_"><path class="st2" d="M143.5,409.6h-8.3v-21.3h-22.4v21.3h-8.3v-50h8.3v22h22.4v-22h8.3V409.6z" id="XMLID_120_"/><path class="st2" d="M190.1,366.3h-15.5v43.3h-8.3v-43.3h-15.2v-6.7h39V366.3z" id="XMLID_118_"/><path class="st2" d="M223.8,398h0.2l14.5-38.5h10.6v50h-8.3v-35.9l-0.2,0l-13.8,36h-5.7l-14-36.6l-0.2,0.1v36.6     h-8.3v-50h11L223.8,398z" id="XMLID_116_"/><path class="st2" d="M270.2,402.9h23.4v6.7h-31.8v-50h8.3V402.9z" id="XMLID_114_"/></g></g></g></svg>