<?xml version="1.0" ?><svg id="Layer_1" style="enable-background:new 0 0 512 512;" version="1.1" viewBox="0 0 512 512" xml:space="preserve" xmlns="http://www.w3.org/2000/svg" xmlns:xlink="http://www.w3.org/1999/xlink"><style type="text/css">
	.st0{fill:#E0A41E;}
	.st1{fill:#FFFFFF;}
	.st2{fill:#F2B233;}
	.st3{fill:#FCE379;}
	.st4{fill:#C18102;}
</style><g><g><path class="st0" d="M431.8,506H80.2c-4.9,0-9-4-9-9V15c0-4.9,4-9,9-9h351.5c4.9,0,9,4,9,9V497    C440.7,502,436.7,506,431.8,506z" id="XMLID_14_"/><rect class="st1" height="471.2" id="XMLID_13_" width="340.7" x="85.7" y="20.4"/><g><g id="XMLID_174_"><g id="XMLID_189_"><rect class="st0" height="11.2" id="XMLID_190_" width="244.2" x="133.9" y="86.2"/></g><g id="XMLID_187_"><rect class="st0" height="11.2" id="XMLID_188_" width="244.2" x="133.9" y="109.4"/></g><g id="XMLID_185_"><rect class="st0" height="11.2" id="XMLID_186_" width="244.2" x="133.9" y="132.5"/></g><g id="XMLID_183_"><rect class="st0" height="11.2" id="XMLID_184_" width="244.2" x="133.9" y="155.6"/></g><g id="XMLID_181_"><rect class="st0" height="11.2" id="XMLID_182_" width="244.2" x="133.9" y="178.8"/></g><g id="XMLID_179_"><rect class="st0" height="11.2" id="XMLID_180_" width="244.2" x="133.9" y="201.9"/></g><g id="XMLID_177_"><rect class="st0" height="11.2" id="XMLID_178_" width="244.2" x="133.9" y="225.1"/></g><g id="XMLID_175_"><rect class="st0" height="11.2" id="XMLID_176_" width="180.4" x="133.9" y="248.2"/></g></g></g><polygon class="st2" id="XMLID_4_" points="274,156 274,6 397.4,6 397.4,156 335.7,119.8   "/><polygon class="st0" id="XMLID_3_" points="356,321.4 85.7,321.4 85.7,447.6 356,447.6 313.3,384.5   "/><polygon class="st3" id="XMLID_2_" points="332.4,333.8 85.7,333.8 85.7,435.3 332.4,435.3 298,384.6   "/><polygon class="st4" id="XMLID_1_" points="258.1,20.4 274,20.4 274,6   "/></g><g id="XMLID_1575_"><g id="XMLID_121_"><path class="st1" d="M138.1,359.6h8.2v34.5c0,4.7-1.4,8.5-4.3,11.3c-2.9,2.8-6.6,4.2-11.2,4.2     c-4.9,0-8.7-1.2-11.5-3.7c-2.8-2.5-4.2-6.1-4.1-10.9l0.1-0.2h8c0,2.8,0.7,4.9,2,6.2c1.3,1.3,3.2,2,5.6,2c2.1,0,3.9-0.8,5.3-2.4     c1.4-1.6,2-3.8,2-6.5V359.6z" id="XMLID_130_"/><path class="st1" d="M183.6,397.3h-17.5l-3.8,11.5h-8.5l17.2-49.3h7.8l17,49.3h-8.5L183.6,397.3z M168.4,390.5     h13L175,371h-0.2L168.4,390.5z" id="XMLID_127_"/><path class="st1" d="M217.3,395.5l0.9,3.6h0.2l0.8-3.5l11.8-36h8.8l-17.6,49.3h-7.8l-17.6-49.3h8.8L217.3,395.5z     " id="XMLID_125_"/><path class="st1" d="M270.6,397.3h-17.5l-3.8,11.5h-8.5l17.2-49.3h7.8l17,49.3h-8.5L270.6,397.3z M255.4,390.5     h13l-6.3-19.4h-0.2L255.4,390.5z" id="XMLID_122_"/></g></g></g></svg>