<?xml version="1.0" ?><svg id="Layer_1" style="enable-background:new 0 0 512 512;" version="1.1" viewBox="0 0 512 512" xml:space="preserve" xmlns="http://www.w3.org/2000/svg" xmlns:xlink="http://www.w3.org/1999/xlink"><style type="text/css">
	.st0{fill:#141D23;}
	.st1{fill:#FFFFFF;}
	.st2{fill:#24323D;}
	.st3{fill:#475563;}
	.st4{fill:#070C0F;}
</style><g><g><path class="st0" d="M431.8,506H80.2c-4.9,0-9-4-9-9V15c0-4.9,4-9,9-9h351.5c4.9,0,9,4,9,9V497    C440.7,502,436.7,506,431.8,506z" id="XMLID_14_"/><rect class="st1" height="471.2" id="XMLID_13_" width="340.7" x="85.7" y="20.4"/><g><g id="XMLID_173_"><g id="XMLID_188_"><rect class="st0" height="11.2" id="XMLID_189_" width="244.2" x="133.9" y="86.2"/></g><g id="XMLID_186_"><rect class="st0" height="11.2" id="XMLID_187_" width="244.2" x="133.9" y="109.4"/></g><g id="XMLID_184_"><rect class="st0" height="11.2" id="XMLID_185_" width="244.2" x="133.9" y="132.5"/></g><g id="XMLID_182_"><rect class="st0" height="11.2" id="XMLID_183_" width="244.2" x="133.9" y="155.6"/></g><g id="XMLID_180_"><rect class="st0" height="11.2" id="XMLID_181_" width="244.2" x="133.9" y="178.8"/></g><g id="XMLID_178_"><rect class="st0" height="11.2" id="XMLID_179_" width="244.2" x="133.9" y="201.9"/></g><g id="XMLID_176_"><rect class="st0" height="11.2" id="XMLID_177_" width="244.2" x="133.9" y="225.1"/></g><g id="XMLID_174_"><rect class="st0" height="11.2" id="XMLID_175_" width="180.4" x="133.9" y="248.2"/></g></g></g><polygon class="st2" id="XMLID_4_" points="274,156 274,6 397.4,6 397.4,156 335.7,119.8   "/><polygon class="st0" id="XMLID_3_" points="356,321.4 85.7,321.4 85.7,447.6 356,447.6 313.3,384.5   "/><polygon class="st3" id="XMLID_2_" points="332.4,333.8 85.7,333.8 85.7,435.3 332.4,435.3 298,384.6   "/><polygon class="st4" id="XMLID_1_" points="258.1,20.4 274,20.4 274,6   "/></g><g id="XMLID_1613_"><g id="XMLID_102_"><path class="st1" d="M123.7,391.6v22.1h-9.7v-58.3h22.3c6.4,0,11.5,1.7,15.1,5c3.6,3.3,5.5,7.7,5.5,13.1     c0,5.5-1.8,9.9-5.5,13.2c-3.6,3.3-8.7,4.9-15.1,4.9H123.7z M123.7,383.8h12.6c3.6,0,6.3-1,8.1-2.9c1.8-1.9,2.7-4.4,2.7-7.3     s-0.9-5.4-2.7-7.4c-1.8-2-4.5-3-8.1-3h-12.6V383.8z" id="XMLID_107_"/><path class="st1" d="M214.2,413.7h-9.7l-25.8-42l-0.2,0.1v41.9h-9.7v-58.3h9.7l25.8,42l0.2-0.1v-41.9h9.7V413.7z     " id="XMLID_105_"/><path class="st1" d="M272.1,405.8c-1.6,2.3-4.2,4.3-7.7,6.1c-3.5,1.8-8,2.7-13.6,2.7c-6.9,0-12.6-2.2-17-6.7     c-4.4-4.4-6.7-10.2-6.7-17.2v-12.2c0-7,2.1-12.8,6.4-17.2c4.3-4.4,9.8-6.7,16.6-6.7c6.8,0,12.1,1.7,15.9,5.1     c3.8,3.4,5.6,7.9,5.5,13.4l-0.1,0.2h-9.3c0-3.3-1-5.9-3.1-7.9c-2-2-5-3-8.8-3c-4,0-7.3,1.5-9.8,4.5c-2.5,3-3.7,6.8-3.7,11.5v12.3     c0,4.7,1.3,8.6,3.9,11.6c2.6,3,5.9,4.5,10.1,4.5c3.1,0,5.6-0.4,7.4-1.1c1.8-0.7,3.2-1.6,4.1-2.6v-12.1h-12.2v-7.3h21.9V405.8z" id="XMLID_103_"/></g></g></g></svg>