<?xml version="1.0" ?><svg id="Layer_1" style="enable-background:new 0 0 512 512;" version="1.1" viewBox="0 0 512 512" xml:space="preserve" xmlns="http://www.w3.org/2000/svg" xmlns:xlink="http://www.w3.org/1999/xlink"><style type="text/css">
	.st0{fill:#084272;}
	.st1{fill:#FFFFFF;}
	.st2{fill:#2B66A1;}
	.st3{fill:#3DA7E3;}
	.st4{fill:#24323D;}
</style><g><g><path class="st0" d="M431.8,506H80.2c-4.9,0-9-4-9-9V15c0-4.9,4-9,9-9h351.5c4.9,0,9,4,9,9V497    C440.7,502,436.7,506,431.8,506z" id="XMLID_14_"/><rect class="st1" height="471.2" id="XMLID_13_" width="340.7" x="85.7" y="20.4"/><g><g id="XMLID_172_"><g id="XMLID_187_"><rect class="st0" height="11.2" id="XMLID_188_" width="244.2" x="133.9" y="86.2"/></g><g id="XMLID_185_"><rect class="st0" height="11.2" id="XMLID_186_" width="244.2" x="133.9" y="109.4"/></g><g id="XMLID_183_"><rect class="st0" height="11.2" id="XMLID_184_" width="244.2" x="133.9" y="132.5"/></g><g id="XMLID_181_"><rect class="st0" height="11.2" id="XMLID_182_" width="244.2" x="133.9" y="155.6"/></g><g id="XMLID_179_"><rect class="st0" height="11.2" id="XMLID_180_" width="244.2" x="133.9" y="178.8"/></g><g id="XMLID_177_"><rect class="st0" height="11.2" id="XMLID_178_" width="244.2" x="133.9" y="201.9"/></g><g id="XMLID_175_"><rect class="st0" height="11.2" id="XMLID_176_" width="244.2" x="133.9" y="225.1"/></g><g id="XMLID_173_"><rect class="st0" height="11.2" id="XMLID_174_" width="180.4" x="133.9" y="248.2"/></g></g></g><polygon class="st2" id="XMLID_4_" points="274,156 274,6 397.4,6 397.4,156 335.7,119.8   "/><polygon class="st0" id="XMLID_3_" points="356,321.4 85.7,321.4 85.7,447.6 356,447.6 313.3,384.5   "/><polygon class="st3" id="XMLID_2_" points="332.4,333.8 85.7,333.8 85.7,435.3 332.4,435.3 298,384.6   "/><polygon class="st4" id="XMLID_1_" points="258.1,20.4 274,20.4 274,6   "/></g><g id="XMLID_1427_"><g id="XMLID_95_"><path class="st1" d="M165.8,360.8h-20.1v56.3h-10.8v-56.3h-19.8v-8.7h50.7V360.8z" id="XMLID_100_"/><path class="st1" d="M199,376.1l13.7-24h12.9l-20,32.2l20.8,32.8h-13l-14.1-24.4l-14.1,24.4h-12.9l20.4-32.8     l-20-32.2h12.8L199,376.1z" id="XMLID_98_"/><path class="st1" d="M283,360.8h-20.1v56.3H252v-56.3h-19.8v-8.7H283V360.8z" id="XMLID_96_"/></g></g></g></svg>