<?xml version="1.0" ?><svg id="Layer_1" style="enable-background:new 0 0 512 512;" version="1.1" viewBox="0 0 512 512" xml:space="preserve" xmlns="http://www.w3.org/2000/svg" xmlns:xlink="http://www.w3.org/1999/xlink"><style type="text/css">
	.st0{fill:#084272;}
	.st1{fill:#FFFFFF;}
	.st2{fill:#2B66A1;}
	.st3{fill:#3DA7E3;}
	.st4{fill:#24323D;}
</style><g><g><path class="st0" d="M431.8,506H80.2c-4.9,0-9-4-9-9V15c0-4.9,4-9,9-9h351.5c4.9,0,9,4,9,9V497    C440.7,502,436.7,506,431.8,506z" id="XMLID_14_"/><rect class="st1" height="471.2" id="XMLID_13_" width="340.7" x="85.7" y="20.4"/><g><g id="XMLID_172_"><g id="XMLID_187_"><rect class="st0" height="11.2" id="XMLID_188_" width="244.2" x="133.9" y="86.2"/></g><g id="XMLID_185_"><rect class="st0" height="11.2" id="XMLID_186_" width="244.2" x="133.9" y="109.4"/></g><g id="XMLID_183_"><rect class="st0" height="11.2" id="XMLID_184_" width="244.2" x="133.9" y="132.5"/></g><g id="XMLID_181_"><rect class="st0" height="11.2" id="XMLID_182_" width="244.2" x="133.9" y="155.6"/></g><g id="XMLID_179_"><rect class="st0" height="11.2" id="XMLID_180_" width="244.2" x="133.9" y="178.8"/></g><g id="XMLID_177_"><rect class="st0" height="11.2" id="XMLID_178_" width="244.2" x="133.9" y="201.9"/></g><g id="XMLID_175_"><rect class="st0" height="11.2" id="XMLID_176_" width="244.2" x="133.9" y="225.1"/></g><g id="XMLID_173_"><rect class="st0" height="11.2" id="XMLID_174_" width="180.4" x="133.9" y="248.2"/></g></g></g><polygon class="st2" id="XMLID_4_" points="274,156 274,6 397.4,6 397.4,156 335.7,119.8   "/><polygon class="st0" id="XMLID_3_" points="356,321.4 85.7,321.4 85.7,447.6 356,447.6 313.3,384.5   "/><polygon class="st3" id="XMLID_2_" points="332.4,333.8 85.7,333.8 85.7,435.3 332.4,435.3 298,384.6   "/><polygon class="st4" id="XMLID_1_" points="258.1,20.4 274,20.4 274,6   "/></g><g id="XMLID_1343_"><g id="XMLID_95_"><path class="st1" d="M188.3,407.6c-1.7,2.5-4.5,4.7-8.3,6.6c-3.8,1.9-8.7,2.9-14.7,2.9c-7.5,0-13.6-2.4-18.4-7.2     c-4.8-4.8-7.2-11-7.2-18.7V378c0-7.6,2.3-13.9,7-18.7c4.7-4.8,10.6-7.2,18-7.2c7.3,0,13.1,1.9,17.2,5.6c4.1,3.7,6.1,8.5,6,14.5     l-0.1,0.3h-10c0-3.6-1.1-6.4-3.3-8.6c-2.2-2.2-5.4-3.3-9.5-3.3c-4.4,0-7.9,1.6-10.6,4.9c-2.7,3.3-4,7.4-4,12.5v13.3     c0,5.1,1.4,9.3,4.2,12.6c2.8,3.3,6.4,4.9,10.9,4.9c3.4,0,6.1-0.4,8-1.1c2-0.8,3.5-1.7,4.5-2.8v-13.1h-13.2v-7.9h23.8V407.6z" id="XMLID_100_"/><path class="st1" d="M215.2,416.2h-10.5V353h10.5V416.2z" id="XMLID_98_"/><path class="st1" d="M268.1,389.2h-25.5v26.9H232V353h40.4v8.5h-29.9v19.3h25.5V389.2z" id="XMLID_96_"/></g></g></g></svg>