<?xml version="1.0" ?><svg id="Layer_1" style="enable-background:new 0 0 512 512;" version="1.1" viewBox="0 0 512 512" xml:space="preserve" xmlns="http://www.w3.org/2000/svg" xmlns:xlink="http://www.w3.org/1999/xlink"><style type="text/css">
	.st0{fill:#096047;}
	.st1{fill:#C41E4A;}
	.st2{fill:#FFFFFF;}
	.st3{fill:#E03258;}
	.st4{fill:#F45671;}
	.st5{fill:#A50C3B;}
</style><g><polygon class="st0" id="XMLID_15_" points="296.6,338 296.6,346.4 305,346.4  "/><g><path class="st1" d="M431.8,506H80.2c-4.9,0-9-4-9-9V15c0-4.9,4-9,9-9h351.5c4.9,0,9,4,9,9V497    C440.7,502,436.7,506,431.8,506z" id="XMLID_14_"/><rect class="st2" height="471.2" id="XMLID_13_" width="340.7" x="85.7" y="20.4"/><g><g id="XMLID_177_"><g id="XMLID_192_"><rect class="st1" height="11.2" id="XMLID_193_" width="244.2" x="133.9" y="86.2"/></g><g id="XMLID_190_"><rect class="st1" height="11.2" id="XMLID_191_" width="244.2" x="133.9" y="109.4"/></g><g id="XMLID_188_"><rect class="st1" height="11.2" id="XMLID_189_" width="244.2" x="133.9" y="132.5"/></g><g id="XMLID_186_"><rect class="st1" height="11.2" id="XMLID_187_" width="244.2" x="133.9" y="155.6"/></g><g id="XMLID_184_"><rect class="st1" height="11.2" id="XMLID_185_" width="244.2" x="133.9" y="178.8"/></g><g id="XMLID_182_"><rect class="st1" height="11.2" id="XMLID_183_" width="244.2" x="133.9" y="201.9"/></g><g id="XMLID_180_"><rect class="st1" height="11.2" id="XMLID_181_" width="244.2" x="133.9" y="225.1"/></g><g id="XMLID_178_"><rect class="st1" height="11.2" id="XMLID_179_" width="180.4" x="133.9" y="248.2"/></g></g></g><polygon class="st3" id="XMLID_4_" points="274,156 274,6 397.4,6 397.4,156 335.7,119.8   "/><polygon class="st1" id="XMLID_3_" points="356,321.4 85.7,321.4 85.7,447.6 356,447.6 313.3,384.5   "/><polygon class="st4" id="XMLID_2_" points="332.4,333.8 85.7,333.8 85.7,435.3 332.4,435.3 298,384.6   "/><polygon class="st5" id="XMLID_1_" points="258.1,20.4 274,20.4 274,6   "/></g><g id="XMLID_1241_"><g id="XMLID_112_"><path class="st2" d="M133.8,391.2v20.9h-9.2v-55h21.1c6.1,0,10.8,1.6,14.3,4.7c3.4,3.1,5.2,7.3,5.2,12.4     c0,5.2-1.7,9.3-5.2,12.4c-3.4,3.1-8.2,4.7-14.3,4.7H133.8z M133.8,383.8h11.9c3.4,0,6-0.9,7.7-2.7c1.7-1.8,2.6-4.1,2.6-6.9     c0-2.8-0.9-5.1-2.6-7c-1.7-1.9-4.3-2.8-7.7-2.8h-11.9V383.8z" id="XMLID_118_"/><path class="st2" d="M219.1,412.1h-9.2v-23.5h-24.6v23.5h-9.2v-55h9.2v24.2h24.6v-24.2h9.2V412.1z" id="XMLID_116_"/><path class="st2" d="M242.2,391.2v20.9H233v-55h21.1c6.1,0,10.8,1.6,14.3,4.7c3.4,3.1,5.2,7.3,5.2,12.4     c0,5.2-1.7,9.3-5.2,12.4c-3.4,3.1-8.2,4.7-14.3,4.7H242.2z M242.2,383.8h11.9c3.4,0,6-0.9,7.7-2.7c1.7-1.8,2.6-4.1,2.6-6.9     c0-2.8-0.9-5.1-2.6-7c-1.7-1.9-4.3-2.8-7.7-2.8h-11.9V383.8z" id="XMLID_113_"/></g></g></g></svg>