<?xml version="1.0" standalone="no"?><!DOCTYPE svg PUBLIC "-//W3C//DTD SVG 1.1//EN" "http://www.w3.org/Graphics/SVG/1.1/DTD/svg11.dtd"><svg t="1543922050654" class="icon" style="" viewBox="0 0 1024 1024" version="1.1" xmlns="http://www.w3.org/2000/svg" p-id="1793" xmlns:xlink="http://www.w3.org/1999/xlink" width="200" height="200"><defs><style type="text/css"></style></defs><path d="M180.224 860.16v-81.92h-40.96c-14.336 0-28.672-14.336-24.576-28.672 14.336-67.584 53.248-149.504 133.12-217.088 92.16-75.776 61.44-133.12 61.44-133.12-26.624 32.768-81.92 10.24-81.92 10.24-32.768 32.768-71.68 36.864-90.112 26.624-18.432-8.192-38.912-32.768-47.104-49.152-4.096-8.192-2.048-16.384 2.048-22.528C122.88 327.68 225.28 196.608 319.488 141.312c18.432-12.288 55.296-8.192 55.296-8.192L471.04 63.488c12.288-8.192 28.672 2.048 22.528 16.384L471.04 145.408s12.288 4.096 28.672 14.336c16.384 2.048 49.152 0 67.584 6.144 24.576 32.768 69.632 92.16 75.776 198.656 8.192 145.408-22.528 229.376-47.104 286.72-14.336 12.288-47.104 12.288-59.392 10.24-10.24 30.72 6.144 69.632 10.24 88.064 4.096 14.336-12.288 28.672-26.624 28.672h-34.816v81.92h40.96c12.288 0 20.48 8.192 20.48 20.48v40.96c0 12.288-8.192 20.48-20.48 20.48h-389.12c-12.288 0-20.48-8.192-20.48-20.48v-40.96c0-12.288 8.192-20.48 20.48-20.48h43.008z" fill="#CFA796" p-id="1794"></path><path d="M368.64 133.12c55.296 2.048 94.208 8.192 118.784 20.48 38.912-18.432 30.72-71.68 24.576-88.064s-22.528-34.816-43.008-18.432c-14.336 12.288-47.104 38.912-100.352 86.016z" fill="#A9897A" p-id="1795"></path><path d="M176.128 245.76c-2.048 12.288 8.192 24.576 32.768 34.816 71.68-63.488 114.688-110.592 165.888-145.408-4.096-32.768-88.064 4.096-108.544 20.48-12.288 12.288-43.008 40.96-90.112 90.112z" fill="#FFFFFF" p-id="1796"></path><path d="M499.712 157.696c83.968 38.912 96.256 208.896 38.912 509.952 28.672 20.48 71.68 8.192 75.776-2.048s94.208-237.568 34.816-387.072c-40.96-100.352-69.632-143.36-88.064-133.12l-61.44 12.288z" fill="#816C63" p-id="1797"></path><path d="M110.592 860.16h450.56v81.92h-450.56z" fill="#CFA796" p-id="1798"></path><path d="M151.552 778.24h368.64v81.92h-368.64z" fill="#C49C8B" p-id="1799"></path><path d="M151.552 778.24h368.64v20.48h-368.64z" fill="#AB8574" p-id="1800"></path><path d="M528.384 983.04h-389.12c-34.816 0-61.44-26.624-61.44-61.44v-40.96c0-32.768 26.624-59.392 59.392-61.44-18.432 0-34.816-10.24-47.104-24.576s-16.384-34.816-12.288-53.248c20.48-94.208 71.68-178.176 145.408-239.616 6.144-4.096 10.24-10.24 16.384-14.336 16.384-16.384 26.624-32.768 32.768-49.152-10.24 2.048-20.48 4.096-28.672 4.096-38.912 34.816-88.064 45.056-120.832 26.624-26.624-14.336-55.296-38.912-65.536-61.44-12.288-22.528-8.192-49.152 8.192-67.584 2.048-2.048 8.192-8.192 14.336-18.432 10.24-10.24 20.48-24.576 26.624-30.72 24.576-28.672 45.056-51.2 65.536-73.728 32.768-34.816 61.44-61.44 90.112-83.968 12.288-10.24 24.576-18.432 36.864-26.624 10.24-6.144 22.528-10.24 36.864-12.288 8.192-2.048 18.432-2.048 26.624-2.048l83.968-61.44c20.48-14.336 47.104-14.336 65.536 0 20.48 14.336 28.672 38.912 20.48 63.488l-8.192 26.624h14.336c20.48 2.048 32.768 4.096 45.056 8.192l6.144 2.048c4.096 2.048 6.144 4.096 8.192 6.144l4.096 4.096c47.104 59.392 79.872 120.832 83.968 221.184 6.144 120.832-6.144 202.752-49.152 305.152l-2.048 6.144c-2.048 4.096-4.096 6.144-6.144 8.192l-4.096 4.096c-12.288 8.192-28.672 14.336-47.104 18.432 0 6.144 2.048 12.288 4.096 20.48l4.096 16.384c4.096 18.432 0 38.912-12.288 55.296-10.24 14.336-26.624 22.528-45.056 24.576 34.816 0 61.44 26.624 61.44 61.44v40.96c0 32.768-26.624 59.392-61.44 59.392z m-389.12-122.88c-12.288 0-20.48 8.192-20.48 20.48v40.96c0 12.288 8.192 20.48 20.48 20.48h389.12c12.288 0 20.48-8.192 20.48-20.48v-40.96c0-12.288-8.192-20.48-20.48-20.48h-20.48c-12.288 0-20.48-8.192-20.48-20.48v-40.96c0-12.288 8.192-20.48 20.48-20.48h14.336c8.192 0 14.336-4.096 18.432-8.192 4.096-6.144 6.144-12.288 4.096-20.48l-4.096-16.384c-4.096-16.384-6.144-30.72-6.144-43.008v-8.192c0-10.24 10.24-18.432 20.48-18.432 18.432 0 34.816-4.096 43.008-12.288 40.96-96.256 53.248-174.08 47.104-286.72-6.144-92.16-32.768-143.36-75.776-198.656-6.144-2.048-16.384-2.048-32.768-4.096h-30.72c-2.048 0-6.144 0-8.192-2.048-4.096-2.048-6.144-4.096-8.192-4.096-10.24-4.096-14.336-14.336-10.24-24.576l16.384-49.152c4.096-10.24-2.048-14.336-6.144-16.384-2.048-2.048-10.24-6.144-18.432 0l-90.112 65.536c-4.096 2.048-8.192 4.096-12.288 4.096-10.24 0-18.432 0-26.624 2.048s-16.384 4.096-22.528 8.192c-10.24 6.144-22.528 14.336-32.768 22.528-26.624 20.48-55.296 47.104-88.064 79.872-20.48 20.48-40.96 43.008-63.488 71.68-6.144 6.144-16.384 20.48-26.624 30.72-8.192 8.192-14.336 16.384-14.336 18.432-6.144 6.144-6.144 14.336-2.048 22.528 8.192 14.336 28.672 34.816 49.152 45.056s53.248 0 79.872-24.576c4.096-4.096 8.192-6.144 12.288-6.144 10.24 0 26.624-2.048 43.008-8.192 4.096-2.048 8.192-2.048 12.288-4.096 6.144-2.048 14.336-2.048 20.48 2.048s10.24 10.24 8.192 18.432c0 36.864-18.432 73.728-49.152 106.496-6.144 6.144-12.288 12.288-18.432 16.384-69.632 57.344-112.64 129.024-131.072 217.088-2.048 10.24 2.048 16.384 4.096 18.432 4.096 4.096 10.24 6.144 18.432 6.144h20.48c12.288 0 20.48 8.192 20.48 20.48v40.96c0 12.288-8.192 20.48-20.48 20.48H139.264z" fill="#401F11" p-id="1801"></path><path d="M346.112 235.52m-30.72 0a30.72 30.72 0 1 0 61.44 0 30.72 30.72 0 1 0-61.44 0Z" fill="#816C63" p-id="1802"></path><path d="M466.944 880.64v-81.92h-40.96c-14.336 0-28.672-14.336-24.576-28.672 14.336-67.584 53.248-149.504 133.12-217.088 92.16-75.776 53.248-126.976 53.248-126.976-26.624 32.768-75.776 6.144-75.776 6.144-32.768 32.768-71.68 36.864-90.112 24.576-18.432-8.192-38.912-32.768-47.104-49.152-4.096-8.192-2.048-16.384 2.048-22.528C409.6 348.16 512 217.088 606.208 161.792c18.432-12.288 55.296-8.192 55.296-8.192L757.76 83.968c12.288-8.192 28.672 2.048 22.528 16.384L757.76 165.888s12.288 4.096 28.672 14.336c16.384 2.048 49.152 0 67.584 6.144 24.576 32.768 69.632 92.16 75.776 198.656 8.192 145.408-22.528 229.376-47.104 286.72-14.336 12.288-43.008 12.288-55.296 10.24-10.24 30.72 2.048 69.632 6.144 88.064 4.096 14.336-10.24 30.72-24.576 30.72l-36.864-2.048v81.92h40.96c12.288 0 20.48 8.192 20.48 20.48v40.96c0 12.288-8.192 20.48-20.48 20.48h-389.12c-12.288 0-20.48-8.192-20.48-20.48v-40.96c0-12.288 8.192-20.48 20.48-20.48h43.008z" fill="#B77A5F" p-id="1803"></path><path d="M655.36 153.6c55.296 2.048 94.208 8.192 118.784 20.48 38.912-18.432 30.72-71.68 24.576-88.064s-22.528-34.816-43.008-18.432c-14.336 12.288-47.104 38.912-100.352 86.016z" fill="#7C4B35" p-id="1804"></path><path d="M462.848 266.24c-2.048 12.288 8.192 24.576 32.768 34.816 71.68-63.488 114.688-110.592 165.888-145.408-4.096-32.768-88.064 4.096-108.544 20.48-12.288 12.288-43.008 40.96-90.112 90.112z" fill="#FFFFFF" p-id="1805"></path><path d="M786.432 178.176c83.968 38.912 94.208 217.088 36.864 518.144 28.672 20.48 73.728 0 77.824-10.24s94.208-237.568 34.816-387.072c-40.96-100.352-69.632-143.36-88.064-133.12l-61.44 12.288z" fill="#401F11" p-id="1806"></path><path d="M397.312 880.64h450.56v81.92h-450.56z" fill="#B77A5F" p-id="1807"></path><path d="M438.272 798.72h368.64v81.92h-368.64z" fill="#A5694F" p-id="1808"></path><path d="M438.272 798.72h368.64v20.48h-368.64z" fill="#80462C" p-id="1809"></path><path d="M815.104 1003.52h-389.12c-34.816 0-61.44-26.624-61.44-61.44v-40.96c0-32.768 26.624-59.392 59.392-61.44-18.432 0-34.816-10.24-47.104-24.576s-16.384-34.816-12.288-53.248c20.48-94.208 71.68-178.176 145.408-239.616 6.144-4.096 10.24-10.24 16.384-14.336 16.384-16.384 26.624-32.768 32.768-49.152-10.24 2.048-20.48 4.096-28.672 4.096-38.912 34.816-88.064 45.056-120.832 26.624-26.624-14.336-55.296-38.912-65.536-61.44-12.288-22.528-8.192-49.152 8.192-67.584 2.048-2.048 8.192-8.192 14.336-18.432 10.24-10.24 20.48-24.576 26.624-30.72 24.576-28.672 45.056-51.2 65.536-73.728 32.768-34.816 61.44-61.44 90.112-83.968 12.288-10.24 24.576-18.432 36.864-26.624 10.24-6.144 22.528-10.24 36.864-12.288 8.192-2.048 18.432-2.048 26.624-2.048l83.968-61.44c20.48-14.336 47.104-14.336 65.536 0 20.48 14.336 28.672 38.912 20.48 63.488l-8.192 26.624h14.336c20.48 2.048 32.768 4.096 45.056 8.192l6.144 2.048c4.096 2.048 6.144 4.096 8.192 6.144l4.096 4.096c47.104 59.392 79.872 120.832 83.968 221.184 6.144 120.832-6.144 202.752-49.152 305.152l-2.048 6.144c-2.048 4.096-4.096 6.144-6.144 8.192l-4.096 4.096c-12.288 8.192-28.672 14.336-47.104 18.432 0 6.144 2.048 12.288 4.096 20.48l4.096 16.384c4.096 18.432 0 38.912-12.288 55.296-10.24 14.336-26.624 22.528-45.056 24.576 34.816 0 61.44 26.624 61.44 61.44v40.96c0 32.768-26.624 59.392-61.44 59.392z m-389.12-122.88c-12.288 0-20.48 8.192-20.48 20.48v40.96c0 12.288 8.192 20.48 20.48 20.48h389.12c12.288 0 20.48-8.192 20.48-20.48v-40.96c0-12.288-8.192-20.48-20.48-20.48h-20.48c-12.288 0-20.48-8.192-20.48-20.48v-40.96c0-12.288 8.192-20.48 20.48-20.48h14.336c8.192 0 14.336-4.096 18.432-8.192 4.096-6.144 6.144-12.288 4.096-20.48l-4.096-16.384c-4.096-16.384-6.144-30.72-6.144-43.008v-8.192c0-10.24 10.24-18.432 20.48-18.432 18.432 0 34.816-4.096 43.008-12.288 40.96-96.256 53.248-174.08 47.104-286.72-6.144-92.16-32.768-143.36-75.776-198.656-6.144-2.048-16.384-2.048-32.768-4.096h-30.72c-2.048 0-6.144 0-8.192-2.048-4.096-2.048-6.144-4.096-8.192-4.096-10.24-4.096-14.336-14.336-10.24-24.576l16.384-49.152c4.096-10.24-2.048-14.336-6.144-16.384-2.048-2.048-10.24-6.144-18.432 0l-90.112 65.536c-4.096 2.048-8.192 4.096-12.288 4.096-10.24 0-18.432 0-26.624 2.048s-16.384 4.096-22.528 8.192c-10.24 6.144-22.528 14.336-32.768 22.528-26.624 20.48-55.296 47.104-88.064 79.872-20.48 20.48-40.96 43.008-63.488 71.68-6.144 6.144-16.384 20.48-26.624 30.72-8.192 8.192-14.336 16.384-14.336 18.432-6.144 6.144-6.144 14.336-2.048 22.528 8.192 14.336 28.672 34.816 49.152 45.056s53.248 0 79.872-24.576c4.096-4.096 8.192-6.144 12.288-6.144 10.24 0 26.624-2.048 43.008-8.192 4.096-2.048 8.192-2.048 12.288-4.096 6.144-2.048 14.336-2.048 20.48 2.048s10.24 10.24 8.192 18.432c0 36.864-18.432 73.728-49.152 106.496-6.144 6.144-12.288 12.288-18.432 16.384-69.632 57.344-112.64 129.024-131.072 217.088-2.048 10.24 2.048 16.384 4.096 18.432 4.096 4.096 10.24 6.144 18.432 6.144h20.48c12.288 0 20.48 8.192 20.48 20.48v40.96c0 12.288-8.192 20.48-20.48 20.48h-22.528z" fill="#401F11" p-id="1810"></path><path d="M632.832 256m-30.72 0a30.72 30.72 0 1 0 61.44 0 30.72 30.72 0 1 0-61.44 0Z" fill="#401F11" p-id="1811"></path></svg>