<?xml version="1.0" standalone="no"?><!DOCTYPE svg PUBLIC "-//W3C//DTD SVG 1.1//EN" "http://www.w3.org/Graphics/SVG/1.1/DTD/svg11.dtd"><svg t="1543922056236" class="icon" style="" viewBox="0 0 1024 1024" version="1.1" xmlns="http://www.w3.org/2000/svg" p-id="1926" xmlns:xlink="http://www.w3.org/1999/xlink" width="200" height="200"><defs><style type="text/css"></style></defs><path d="M63.488 161.792h696.32v409.6h-696.32z" fill="#8C74FF" p-id="1927"></path><path d="M780.288 612.352h-737.28c-12.288 0-20.48-8.192-20.48-20.48v-450.56c0-12.288 8.192-20.48 20.48-20.48h737.28c12.288 0 20.48 8.192 20.48 20.48v450.56c0 12.288-8.192 20.48-20.48 20.48z m-716.8-40.96h696.32v-409.6h-696.32v409.6z" fill="#13173C" p-id="1928"></path><path d="M231.424 419.84c2.048 14.336 12.288 20.48 32.768 20.48 16.384 0 26.624-4.096 26.624-14.336 0-4.096-2.048-8.192-6.144-10.24s-8.192-4.096-22.528-6.144c-22.528-4.096-32.768-8.192-43.008-10.24-14.336-6.144-22.528-12.288-28.672-20.48-4.096-8.192-8.192-18.432-8.192-26.624 0-34.816 28.672-55.296 77.824-55.296 26.624 0 47.104 6.144 61.44 18.432 10.24 8.192 14.336 16.384 18.432 32.768l-55.296 6.144c-2.048-12.288-8.192-16.384-24.576-16.384-14.336 0-24.576 4.096-24.576 12.288 0 8.192 6.144 10.24 34.816 16.384s36.864 8.192 47.104 14.336c18.432 8.192 26.624 22.528 26.624 43.008 0 14.336-6.144 28.672-14.336 38.912-14.336 14.336-36.864 20.48-67.584 20.48-36.864 0-61.44-10.24-75.776-28.672-6.144-8.192-8.192-14.336-12.288-28.672l57.344-6.144zM391.168 296.96c0-14.336 0-26.624-2.048-38.912h59.392c-2.048 12.288-2.048 24.576-2.048 38.912v6.144h10.24c12.288 0 18.432 0 28.672-2.048V348.16c-8.192-2.048-16.384-2.048-26.624-2.048h-12.288v73.728c0 8.192 2.048 12.288 6.144 14.336 4.096 2.048 8.192 4.096 12.288 4.096 8.192 0 12.288-2.048 20.48-6.144l4.096 43.008c-12.288 4.096-24.576 6.144-38.912 6.144-20.48 0-32.768-4.096-43.008-10.24-10.24-8.192-14.336-18.432-14.336-36.864v-88.064h-10.24c-8.192 0-16.384 0-24.576 2.048v-47.104c8.192 2.048 16.384 2.048 24.576 2.048h8.192v-6.144zM634.88 354.304c-12.288-4.096-20.48-6.144-28.672-6.144-14.336 0-26.624 6.144-34.816 16.384-6.144 6.144-8.192 12.288-8.192 24.576v45.056c0 18.432 0 28.672 2.048 43.008h-59.392c2.048-14.336 2.048-24.576 2.048-43.008v-88.064c0-20.48 0-30.72-2.048-43.008h57.344v22.528c14.336-18.432 30.72-26.624 57.344-26.624 8.192 0 14.336 0 28.672 4.096l-14.336 51.2z" fill="#FFFFFF" p-id="1929"></path><path d="M675.84 509.952c0 18.432 4.096 36.864 12.288 55.296v4.096c-34.816 30.72-71.68 61.44-106.496 92.16l-92.16 79.872c-18.432 16.384-18.432 40.96-2.048 59.392l45.056 45.056c16.384 16.384 43.008 16.384 59.392-2.048l73.728-86.016c32.768-38.912 63.488-71.68 96.256-110.592 2.048-2.048 2.048-2.048 4.096-2.048 81.92 34.816 178.176-18.432 198.656-106.496 2.048-20.48 0-45.056-6.144-69.632-2.048-10.24-16.384-18.432-24.576-10.24-24.576 24.576-47.104 53.248-71.68 77.824-8.192 8.192-16.384 8.192-24.576 0L792.576 491.52c-8.192-8.192-2.048-12.288 6.144-20.48l73.728-73.728c8.192-8.192 0-24.576-12.288-26.624-51.2-14.336-98.304-4.096-139.264 32.768-26.624 22.528-40.96 53.248-45.056 88.064 2.048 8.192 2.048 14.336 0 18.432z" fill="#818181" p-id="1930"></path><path d="M501.76 874.496l-45.056-45.056c-16.384-16.384-24.576-38.912-24.576-61.44s10.24-43.008 28.672-57.344c18.432-16.384 32.768-28.672 65.536-55.296l114.688-98.304c-4.096-14.336-6.144-28.672-6.144-45.056v-8.192c0-6.144 0-10.24 2.048-14.336 6.144-45.056 24.576-83.968 57.344-112.64 49.152-45.056 110.592-59.392 176.128-43.008 20.48 6.144 34.816 18.432 38.912 38.912 4.096 18.432 0 38.912-14.336 53.248l-57.344 57.344 10.24 10.24 57.344-57.344c14.336-14.336 32.768-18.432 51.2-14.336 18.432 4.096 32.768 18.432 38.912 38.912 8.192 30.72 10.24 61.44 4.096 92.16-10.24 51.2-43.008 96.256-90.112 120.832-40.96 24.576-90.112 30.72-137.216 18.432l-102.4 120.832c-26.624 30.72-36.864 43.008-51.2 61.44-14.336 16.384-34.816 26.624-57.344 28.672-14.336 0-43.008-12.288-59.392-28.672zM819.2 366.592c-34.816 0-67.584 12.288-96.256 38.912a141.312 141.312 0 0 0-45.056 88.064V512c0 16.384 2.048 30.72 8.192 45.056l4.096 12.288-135.168 116.736c-32.768 28.672-47.104 40.96-65.536 55.296-8.192 8.192-14.336 18.432-14.336 28.672s4.096 22.528 12.288 30.72l45.056 45.056c8.192 8.192 18.432 12.288 30.72 12.288 10.24 0 20.48-6.144 28.672-14.336 14.336-16.384 26.624-30.72 51.2-59.392l120.832-141.312 12.288 4.096c38.912 12.288 81.92 8.192 116.736-12.288 36.864-20.48 61.44-53.248 69.632-94.208 4.096-22.528 2.048-47.104-4.096-71.68-2.048-4.096-4.096-8.192-10.24-10.24-4.096-2.048-10.24 0-12.288 4.096l-86.016 88.064-67.584-67.584 14.336-14.336 71.68-71.68c4.096-4.096 6.144-8.192 4.096-14.336 0-2.048-2.048-8.192-10.24-10.24-16.384-4.096-30.72-6.144-43.008-6.144z" fill="#13173C" p-id="1931"></path></svg>