<?xml version="1.0" standalone="no"?><!DOCTYPE svg PUBLIC "-//W3C//DTD SVG 1.1//EN" "http://www.w3.org/Graphics/SVG/1.1/DTD/svg11.dtd"><svg t="1543922028679" class="icon" style="" viewBox="0 0 1024 1024" version="1.1" xmlns="http://www.w3.org/2000/svg" p-id="1423" xmlns:xlink="http://www.w3.org/1999/xlink" width="200" height="200"><defs><style type="text/css"></style></defs><path d="M327.68 329.728l-143.36 67.584v-135.168zM839.68 217.088l-190.464 88.064-49.152 22.528-88.064 40.96-88.064-40.96-47.104-22.528L184.32 217.088l221.184 73.728 57.344 20.48 49.152 16.384 51.2-18.432 55.296-18.432zM839.68 262.144v133.12L696.32 327.68z" fill="#258ADE" p-id="1424"></path><path d="M839.68 440.32V532.48H184.32v-92.16l192.512-90.112 126.976 59.392c2.048 2.048 6.144 2.048 8.192 2.048s6.144 0 8.192-2.048l126.976-59.392 192.512 90.112z" fill="#258ADE" p-id="1425"></path><path d="M184.32 532.48h655.36H184.32z" fill="#1C2754" p-id="1426"></path><path d="M600.064 327.68L512 368.64l-88.064-40.96 38.912-16.384 49.152 16.384 51.2-18.432z" fill="#5BB5FF" p-id="1427"></path><path d="M839.68 440.32V532.48H184.32v-92.16l192.512-90.112 126.976 59.392c2.048 2.048 6.144 2.048 8.192 2.048s6.144 0 8.192-2.048l126.976-59.392 192.512 90.112z" fill="#5BB5FF" p-id="1428"></path><path d="M618.496 290.816l-55.296 18.432 36.864 18.432 49.152-22.528-30.72-14.336z m-241.664 14.336l49.152 22.528 36.864-18.432-55.296-18.432-30.72 14.336zM163.84 573.44c-6.144 0-10.24-2.048-14.336-6.144 4.096 4.096 8.192 6.144 14.336 6.144h327.68H163.84z m696.32 0H532.48h327.68c6.144 0 10.24-2.048 14.336-6.144-4.096 4.096-8.192 6.144-14.336 6.144z" fill="#1C2754" p-id="1429"></path><path d="M839.68 217.088l-190.464 88.064-49.152 22.528-88.064 40.96-88.064-40.96-47.104-22.528L184.32 217.088l221.184 73.728 57.344 20.48 49.152 16.384 51.2-18.432 55.296-18.432z" fill="#C7E6FF" p-id="1430"></path><path d="M819.2 739.328V655.36c0-10.24-10.24-20.48-20.48-20.48H532.48v-61.44h327.68c6.144 0 10.24-2.048 14.336-6.144 4.096-4.096 6.144-8.192 6.144-14.336V102.4c0-10.24-10.24-20.48-20.48-20.48H163.84c-10.24 0-20.48 10.24-20.48 20.48v450.56c0 6.144 2.048 10.24 6.144 14.336 4.096 4.096 8.192 6.144 14.336 6.144h327.68v61.44H225.28c-10.24 0-20.48 10.24-20.48 20.48v83.968c-47.104 10.24-81.92 51.2-81.92 100.352 0 57.344 45.056 102.4 102.4 102.4s102.4-45.056 102.4-102.4c0-49.152-34.816-90.112-81.92-100.352V675.84h245.76v63.488c-47.104 10.24-81.92 51.2-81.92 100.352 0 57.344 45.056 102.4 102.4 102.4s102.4-45.056 102.4-102.4c0-49.152-34.816-90.112-81.92-100.352V675.84h245.76v63.488c-47.104 10.24-81.92 51.2-81.92 100.352 0 57.344 45.056 102.4 102.4 102.4s102.4-45.056 102.4-102.4c0-49.152-34.816-90.112-81.92-100.352zM286.72 839.68c0 32.768-26.624 61.44-61.44 61.44s-61.44-28.672-61.44-61.44c0-26.624 16.384-49.152 40.96-57.344 6.144-2.048 14.336-4.096 20.48-4.096s14.336 2.048 20.48 4.096c24.576 8.192 40.96 30.72 40.96 57.344z m552.96-444.416L696.32 327.68l143.36-65.536v133.12zM184.32 122.88h655.36v94.208l-190.464 88.064-49.152 22.528-88.064 40.96-88.064-40.96-49.152-22.528L184.32 217.088V122.88z m0 139.264l143.36 67.584-143.36 67.584v-135.168zM573.44 839.68c0 32.768-26.624 61.44-61.44 61.44s-61.44-28.672-61.44-61.44c0-26.624 16.384-49.152 40.96-57.344 6.144-2.048 14.336-4.096 20.48-4.096s14.336 2.048 20.48 4.096c24.576 8.192 40.96 30.72 40.96 57.344zM184.32 532.48v-92.16l192.512-90.112 126.976 59.392c2.048 2.048 6.144 2.048 8.192 2.048s6.144 0 8.192-2.048l126.976-59.392 190.464 90.112V532.48H184.32z m614.4 368.64c-34.816 0-61.44-28.672-61.44-61.44 0-26.624 16.384-49.152 40.96-57.344 6.144-2.048 14.336-4.096 20.48-4.096s14.336 2.048 20.48 4.096c24.576 8.192 40.96 30.72 40.96 57.344 0 32.768-26.624 61.44-61.44 61.44z" fill="#1C2754" p-id="1431"></path><path d="M839.68 122.88v94.208l-221.184 73.728-55.296 18.432-51.2 18.432-49.152-16.384-57.344-20.48L184.32 217.088V122.88z" fill="#5BB5FF" p-id="1432"></path><path d="M860.16 839.68c0 32.768-26.624 61.44-61.44 61.44s-61.44-28.672-61.44-61.44c0-26.624 16.384-49.152 40.96-57.344 6.144-2.048 14.336-4.096 20.48-4.096s14.336 2.048 20.48 4.096c24.576 8.192 40.96 30.72 40.96 57.344z" fill="#FFCC7C" p-id="1433"></path><path d="M286.72 839.68c0 32.768-26.624 61.44-61.44 61.44s-61.44-28.672-61.44-61.44c0-26.624 16.384-49.152 40.96-57.344 6.144-2.048 14.336-4.096 20.48-4.096s14.336 2.048 20.48 4.096c24.576 8.192 40.96 30.72 40.96 57.344z" fill="#FFCC7C" p-id="1434"></path><path d="M573.44 839.68c0 32.768-26.624 61.44-61.44 61.44s-61.44-28.672-61.44-61.44c0-26.624 16.384-49.152 40.96-57.344 6.144-2.048 14.336-4.096 20.48-4.096s14.336 2.048 20.48 4.096c24.576 8.192 40.96 30.72 40.96 57.344z" fill="#5BB5FF" p-id="1435"></path><path d="M860.16 839.68c0 32.768-26.624 61.44-61.44 61.44s-61.44-28.672-61.44-61.44c0-26.624 16.384-49.152 40.96-57.344 6.144-2.048 14.336-4.096 20.48-4.096s14.336 2.048 20.48 4.096c24.576 8.192 40.96 30.72 40.96 57.344z" fill="#FFCC7C" p-id="1436"></path></svg>